<svg width="201" height="29" viewBox="0 0 201 29" fill="none" xmlns="http://www.w3.org/2000/svg">
<rect x="0.5" y="28.5" width="9" height="199" transform="rotate(-90 0.5 28.5)" fill="url(#paint0_linear)" stroke="#FEFEFF"/>
<rect x="39" y="15" width="1" height="13" fill="#FEFEFF"/>
<rect y="15" width="1" height="5" fill="#FEFEFF"/>
<rect x="79" y="15" width="1" height="13" fill="#FEFEFF"/>
<rect x="119" y="15" width="1" height="13" fill="#FEFEFF"/>
<rect x="159" y="15" width="1" height="13" fill="#FEFEFF"/>
<rect x="199" y="15" width="1" height="5" fill="#FEFEFF"/>
<path d="M2.46 3V10H1.74V3.64H0.09V3H2.46Z" fill="#DFDEDE"/>
<path d="M42.3 9.36V10H37.39V9.49L40.3 6.64C40.6667 6.28 40.9133 5.97 41.04 5.71C41.1733 5.44333 41.24 5.17667 41.24 4.91C41.24 4.49667 41.0967 4.17667 40.81 3.95C40.53 3.71667 40.1267 3.6 39.6 3.6C38.78 3.6 38.1433 3.86 37.69 4.38L37.18 3.94C37.4533 3.62 37.8 3.37333 38.22 3.2C38.6467 3.02667 39.1267 2.94 39.66 2.94C40.3733 2.94 40.9367 3.11 41.35 3.45C41.77 3.78333 41.98 4.24333 41.98 4.83C41.98 5.19 41.9 5.53667 41.74 5.87C41.58 6.20333 41.2767 6.58667 40.83 7.02L38.45 9.36H42.3Z" fill="#DFDEDE"/>
<path d="M78.9 6C79.6333 6.04 80.19 6.24 80.57 6.6C80.9567 6.95333 81.15 7.41667 81.15 7.99C81.15 8.39 81.0533 8.74667 80.86 9.06C80.6667 9.36667 80.38 9.61 80 9.79C79.62 9.97 79.1567 10.06 78.61 10.06C78.1033 10.06 77.6233 9.98 77.17 9.82C76.7233 9.65333 76.3633 9.43333 76.09 9.16L76.44 8.59C76.6733 8.83 76.9833 9.02667 77.37 9.18C77.7567 9.32667 78.17 9.4 78.61 9.4C79.1833 9.4 79.6267 9.27667 79.94 9.03C80.2533 8.77667 80.41 8.43 80.41 7.99C80.41 7.55667 80.2533 7.21667 79.94 6.97C79.6267 6.72333 79.1533 6.6 78.52 6.6H78.02V6.07L79.96 3.64H76.38V3H80.88V3.51L78.9 6Z" fill="#DFDEDE"/>
<path d="M121.47 8.16H120.07V10H119.35V8.16H115.4V7.64L119.11 3H119.91L116.33 7.52H119.37V5.9H120.07V7.52H121.47V8.16Z" fill="#DFDEDE"/>
<path d="M157.36 5.87C158.373 5.87 159.11 6.05333 159.57 6.42C160.037 6.78 160.27 7.28667 160.27 7.94C160.27 8.34667 160.173 8.71 159.98 9.03C159.793 9.35 159.51 9.60333 159.13 9.79C158.75 9.97 158.283 10.06 157.73 10.06C157.23 10.06 156.753 9.98 156.3 9.82C155.853 9.65333 155.493 9.43333 155.22 9.16L155.57 8.59C155.803 8.83 156.11 9.02667 156.49 9.18C156.87 9.32667 157.28 9.4 157.72 9.4C158.3 9.4 158.747 9.27 159.06 9.01C159.38 8.75 159.54 8.40333 159.54 7.97C159.54 7.49 159.36 7.12667 159 6.88C158.647 6.63333 158.047 6.51 157.2 6.51H155.71L156.07 3H159.9V3.64H156.7L156.46 5.87H157.36Z" fill="#DFDEDE"/>
<path d="M197.42 5.81C197.88 5.81 198.287 5.89667 198.64 6.07C199 6.24333 199.28 6.49 199.48 6.81C199.68 7.12333 199.78 7.49 199.78 7.91C199.78 8.33667 199.677 8.71333 199.47 9.04C199.263 9.36667 198.977 9.62 198.61 9.8C198.25 9.97333 197.843 10.06 197.39 10.06C196.463 10.06 195.753 9.75667 195.26 9.15C194.767 8.53667 194.52 7.67333 194.52 6.56C194.52 5.78 194.653 5.12 194.92 4.58C195.187 4.04 195.56 3.63333 196.04 3.36C196.52 3.08 197.08 2.94 197.72 2.94C198.413 2.94 198.967 3.06667 199.38 3.32L199.09 3.9C198.757 3.68 198.303 3.57 197.73 3.57C196.957 3.57 196.35 3.81667 195.91 4.31C195.47 4.79667 195.25 5.50667 195.25 6.44C195.25 6.60667 195.26 6.79667 195.28 7.01C195.453 6.63 195.73 6.33667 196.11 6.13C196.49 5.91667 196.927 5.81 197.42 5.81ZM197.36 9.45C197.867 9.45 198.277 9.31333 198.59 9.04C198.91 8.76 199.07 8.39 199.07 7.93C199.07 7.47 198.91 7.10333 198.59 6.83C198.277 6.55667 197.85 6.42 197.31 6.42C196.957 6.42 196.643 6.48667 196.37 6.62C196.103 6.75333 195.893 6.93667 195.74 7.17C195.587 7.40333 195.51 7.66333 195.51 7.95C195.51 8.21667 195.58 8.46333 195.72 8.69C195.867 8.91667 196.08 9.1 196.36 9.24C196.64 9.38 196.973 9.45 197.36 9.45Z" fill="#DFDEDE"/>
<defs>
<linearGradient id="paint0_linear" x1="5" y1="29" x2="5" y2="229" gradientUnits="userSpaceOnUse">
<stop stop-color="#F60000"/>
<stop offset="0.265625" stop-color="#FFED00"/>
<stop offset="0.515625" stop-color="#4CFF00"/>
<stop offset="0.765625" stop-color="#33EEFF"/>
<stop offset="1" stop-color="#0036FF"/>
</linearGradient>
</defs>
</svg>
