<svg width="15" height="16" viewBox="0 0 15 16" fill="none" xmlns="http://www.w3.org/2000/svg">
<path d="M14.7885 15.4561L10.3549 10.688C11.3071 9.53604 11.9022 8.06403 11.9022 6.40003C11.9022 2.88001 9.22421 0 5.9511 0C2.678 0 0 2.88001 0 6.40003C0 9.92004 2.678 12.8001 5.9511 12.8001C7.49839 12.8001 8.86715 12.1601 9.93834 11.136L14.3719 15.9041C14.6427 16.1953 15.0697 15.7588 14.7885 15.4561ZM0.59511 6.40003C0.59511 3.23201 3.00531 0.640003 5.9511 0.640003C8.8969 0.640003 11.3071 3.23201 11.3071 6.40003C11.3071 9.56804 8.8969 12.1601 5.9511 12.1601C3.00531 12.1601 0.59511 9.56804 0.59511 6.40003Z" fill="#DFDEDE"/>
</svg>
